<?xml version="1.0" encoding="iso-8859-1"?>
<!-- Generator: Adobe Illustrator 19.0.0, SVG Export Plug-In . SVG Version: 6.00 Build 0)  -->
<svg version="1.1" id="Layer_1" xmlns="http://www.w3.org/2000/svg" xmlns:xlink="http://www.w3.org/1999/xlink" x="0px" y="0px"
	 viewBox="0 0 512 512" style="enable-background:new 0 0 512 512;" xml:space="preserve">
<g>
	<g>
		<path d="M277.558,147.242H148.21c-4.465,0-8.084,3.62-8.084,8.084c0,4.465,3.62,8.084,8.084,8.084h129.347
			c4.465,0,8.084-3.62,8.084-8.084C285.642,150.861,282.023,147.242,277.558,147.242z"/>
	</g>
</g>
<g>
	<g>
		<path d="M363.789,147.242h-43.116c-4.465,0-8.084,3.62-8.084,8.084c0,4.465,3.62,8.084,8.084,8.084h43.116
			c4.465,0,8.084-3.62,8.084-8.084C371.874,150.861,368.254,147.242,363.789,147.242z"/>
	</g>
</g>
<g>
	<g>
		<path d="M212.884,190.357H148.21c-4.465,0-8.084,3.62-8.084,8.084c0,4.465,3.62,8.084,8.084,8.084h64.674
			c4.465,0,8.084-3.62,8.084-8.084C220.968,193.977,217.349,190.357,212.884,190.357z"/>
	</g>
</g>
<g>
	<g>
		<path d="M277.558,190.357H256c-4.465,0-8.084,3.62-8.084,8.084c0,4.465,3.62,8.084,8.084,8.084h21.558
			c4.465,0,8.084-3.62,8.084-8.084C285.642,193.977,282.023,190.357,277.558,190.357z"/>
	</g>
</g>
<g>
	<g>
		<path d="M363.789,190.357h-43.116c-4.465,0-8.084,3.62-8.084,8.084c0,4.465,3.62,8.084,8.084,8.084h43.116
			c4.465,0,8.084-3.62,8.084-8.084C371.874,193.977,368.254,190.357,363.789,190.357z"/>
	</g>
</g>
<g>
	<g>
		<path d="M363.789,233.473H256c-4.465,0-8.084,3.62-8.084,8.084c0,4.465,3.62,8.084,8.084,8.084h107.79
			c4.465,0,8.084-3.62,8.084-8.084C371.874,237.093,368.254,233.473,363.789,233.473z"/>
	</g>
</g>
<g>
	<g>
		<path d="M212.884,233.473H148.21c-4.465,0-8.084,3.62-8.084,8.084c0,4.465,3.62,8.084,8.084,8.084h64.674
			c4.465,0,8.084-3.618,8.084-8.084C220.968,237.093,217.349,233.473,212.884,233.473z"/>
	</g>
</g>
<g>
	<g>
		<path d="M508.641,201.009l0.002-0.003l-72.096-51.973v-16.782c0-28.584-22.969-51.838-51.2-51.838h-29.889L292.558,38.48
			c-22.208-14.805-50.908-14.805-73.115,0l-62.901,41.933h-29.89c-28.231,0-51.2,23.255-51.2,51.838v16.782L3.357,201.006
			l0.002,0.003C1.271,202.514,0,204.942,0,207.564v225.94c0,28.188,22.969,51.12,51.2,51.12h409.6c28.231,0,51.2-22.932,51.2-51.12
			v-225.94C512,204.942,510.729,202.514,508.641,201.009z M436.547,168.964l53.43,38.518l-53.43,37.57V168.964z M91.621,132.251
			c0-19.335,16.042-35.67,35.032-35.67h32.269c0.021,0,0.041,0,0.061,0H261.85c4.465,0,8.084-3.62,8.084-8.084
			c0-4.465-3.62-8.084-8.084-8.084h-76.16l42.721-28.481c16.759-11.172,38.418-11.173,55.177,0l42.721,28.481h-28.816
			c-4.465,0-8.084,3.62-8.084,8.084c0,4.465,3.62,8.084,8.084,8.084h55.494c0.005,0,0.01,0.001,0.015,0.001s0.012-0.001,0.017-0.001
			h32.327c18.989,0,35.032,16.334,35.032,35.67v124.17l-102.657,72.184l-39.523-20.337c-13.718-8.101-30.68-8.101-44.397,0
			l-39.523,20.337L91.621,256.421V132.251z M75.453,168.964v76.088l-53.43-37.57L75.453,168.964z M16.168,223.131l161.877,113.826
			L16.168,420.252V223.131z M460.8,468.454H51.2c-17.697,0-32.363-13.164-34.698-30.191l224.917-115.732
			c0.154-0.08,0.306-0.164,0.455-0.252c8.714-5.219,19.54-5.219,28.254,0c0.149,0.089,0.301,0.174,0.455,0.252l224.917,115.732
			C493.163,455.291,478.497,468.454,460.8,468.454z M495.832,420.252l-161.877-83.294l161.877-113.827V420.252z"/>
	</g>
</g>
<g>
</g>
<g>
</g>
<g>
</g>
<g>
</g>
<g>
</g>
<g>
</g>
<g>
</g>
<g>
</g>
<g>
</g>
<g>
</g>
<g>
</g>
<g>
</g>
<g>
</g>
<g>
</g>
<g>
</g>
</svg>
